<svg id="visual" viewBox="0 0 960 540" width="960" height="540" xmlns="http://www.w3.org/2000/svg" xmlns:xlink="http://www.w3.org/1999/xlink" version="1.1"><path d="M0 131L13.3 131C26.7 131 53.3 131 80 127.3C106.7 123.7 133.3 116.3 160 116.3C186.7 116.3 213.3 123.7 240 133.5C266.7 143.3 293.3 155.7 320 156.5C346.7 157.3 373.3 146.7 400 142.2C426.7 137.7 453.3 139.3 480 138.5C506.7 137.7 533.3 134.3 560 130.8C586.7 127.3 613.3 123.7 640 121.8C666.7 120 693.3 120 720 125.3C746.7 130.7 773.3 141.3 800 146.7C826.7 152 853.3 152 880 153C906.7 154 933.3 156 946.7 157L960 158L960 0L946.7 0C933.3 0 906.7 0 880 0C853.3 0 826.7 0 800 0C773.3 0 746.7 0 720 0C693.3 0 666.7 0 640 0C613.3 0 586.7 0 560 0C533.3 0 506.7 0 480 0C453.3 0 426.7 0 400 0C373.3 0 346.7 0 320 0C293.3 0 266.7 0 240 0C213.3 0 186.7 0 160 0C133.3 0 106.7 0 80 0C53.3 0 26.7 0 13.3 0L0 0Z" fill="#0e0e0e"></path><path d="M0 168L13.3 167.2C26.7 166.3 53.3 164.7 80 160.2C106.7 155.7 133.3 148.3 160 148.3C186.7 148.3 213.3 155.7 240 164.7C266.7 173.7 293.3 184.3 320 186.2C346.7 188 373.3 181 400 177.5C426.7 174 453.3 174 480 171.3C506.7 168.7 533.3 163.3 560 161.5C586.7 159.7 613.3 161.3 640 161.3C666.7 161.3 693.3 159.7 720 163.3C746.7 167 773.3 176 800 182.2C826.7 188.3 853.3 191.7 880 194.3C906.7 197 933.3 199 946.7 200L960 201L960 156L946.7 155C933.3 154 906.7 152 880 151C853.3 150 826.7 150 800 144.7C773.3 139.3 746.7 128.7 720 123.3C693.3 118 666.7 118 640 119.8C613.3 121.7 586.7 125.3 560 128.8C533.3 132.3 506.7 135.7 480 136.5C453.3 137.3 426.7 135.7 400 140.2C373.3 144.7 346.7 155.3 320 154.5C293.3 153.7 266.7 141.3 240 131.5C213.3 121.7 186.7 114.3 160 114.3C133.3 114.3 106.7 121.7 80 125.3C53.3 129 26.7 129 13.3 129L0 129Z" fill="#151515"></path><path d="M0 201L13.3 204.5C26.7 208 53.3 215 80 211.3C106.7 207.7 133.3 193.3 160 191.7C186.7 190 213.3 201 240 214.5C266.7 228 293.3 244 320 246.7C346.7 249.3 373.3 238.7 400 231.5C426.7 224.3 453.3 220.7 480 214.3C506.7 208 533.3 199 560 197.2C586.7 195.3 613.3 200.7 640 202.5C666.7 204.3 693.3 202.7 720 207.2C746.7 211.7 773.3 222.3 800 227.7C826.7 233 853.3 233 880 233C906.7 233 933.3 233 946.7 233L960 233L960 199L946.7 198C933.3 197 906.7 195 880 192.3C853.3 189.7 826.7 186.3 800 180.2C773.3 174 746.7 165 720 161.3C693.3 157.7 666.7 159.3 640 159.3C613.3 159.3 586.7 157.7 560 159.5C533.3 161.3 506.7 166.7 480 169.3C453.3 172 426.7 172 400 175.5C373.3 179 346.7 186 320 184.2C293.3 182.3 266.7 171.7 240 162.7C213.3 153.7 186.7 146.3 160 146.3C133.3 146.3 106.7 153.7 80 158.2C53.3 162.7 26.7 164.3 13.3 165.2L0 166Z" fill="#1a1a1a"></path><path d="M0 260L13.3 267.2C26.7 274.3 53.3 288.7 80 286.8C106.7 285 133.3 267 160 262.5C186.7 258 213.3 267 240 283.3C266.7 299.7 293.3 323.3 320 324.3C346.7 325.3 373.3 303.7 400 292.8C426.7 282 453.3 282 480 280.2C506.7 278.3 533.3 274.7 560 271C586.7 267.3 613.3 263.7 640 261C666.7 258.3 693.3 256.7 720 261.2C746.7 265.7 773.3 276.3 800 287.2C826.7 298 853.3 309 880 314.5C906.7 320 933.3 320 946.7 320L960 320L960 231L946.7 231C933.3 231 906.7 231 880 231C853.3 231 826.7 231 800 225.7C773.3 220.3 746.7 209.7 720 205.2C693.3 200.7 666.7 202.3 640 200.5C613.3 198.7 586.7 193.3 560 195.2C533.3 197 506.7 206 480 212.3C453.3 218.7 426.7 222.3 400 229.5C373.3 236.7 346.7 247.3 320 244.7C293.3 242 266.7 226 240 212.5C213.3 199 186.7 188 160 189.7C133.3 191.3 106.7 205.7 80 209.3C53.3 213 26.7 206 13.3 202.5L0 199Z" fill="#1f1f1f"></path><path d="M0 314L13.3 317.7C26.7 321.3 53.3 328.7 80 323.3C106.7 318 133.3 300 160 297.3C186.7 294.7 213.3 307.3 240 323.5C266.7 339.7 293.3 359.3 320 360.2C346.7 361 373.3 343 400 333.2C426.7 323.3 453.3 321.7 480 319C506.7 316.3 533.3 312.7 560 310.8C586.7 309 613.3 309 640 305.3C666.7 301.7 693.3 294.3 720 297.8C746.7 301.3 773.3 315.7 800 330.2C826.7 344.7 853.3 359.3 880 364.8C906.7 370.3 933.3 366.7 946.7 364.8L960 363L960 318L946.7 318C933.3 318 906.7 318 880 312.5C853.3 307 826.7 296 800 285.2C773.3 274.3 746.7 263.7 720 259.2C693.3 254.7 666.7 256.3 640 259C613.3 261.7 586.7 265.3 560 269C533.3 272.7 506.7 276.3 480 278.2C453.3 280 426.7 280 400 290.8C373.3 301.7 346.7 323.3 320 322.3C293.3 321.3 266.7 297.7 240 281.3C213.3 265 186.7 256 160 260.5C133.3 265 106.7 283 80 284.8C53.3 286.7 26.7 272.3 13.3 265.2L0 258Z" fill="#1f1f1f"></path><path d="M0 357L13.3 361.5C26.7 366 53.3 375 80 369.7C106.7 364.3 133.3 344.7 160 342C186.7 339.3 213.3 353.7 240 368C266.7 382.3 293.3 396.7 320 397.7C346.7 398.7 373.3 386.3 400 377.3C426.7 368.3 453.3 362.7 480 359.8C506.7 357 533.3 357 560 353.5C586.7 350 613.3 343 640 339.5C666.7 336 693.3 336 720 340.5C746.7 345 773.3 354 800 365.7C826.7 377.3 853.3 391.7 880 398C906.7 404.3 933.3 402.7 946.7 401.8L960 401L960 361L946.7 362.8C933.3 364.7 906.7 368.3 880 362.8C853.3 357.3 826.7 342.7 800 328.2C773.3 313.7 746.7 299.3 720 295.8C693.3 292.3 666.7 299.7 640 303.3C613.3 307 586.7 307 560 308.8C533.3 310.7 506.7 314.3 480 317C453.3 319.7 426.7 321.3 400 331.2C373.3 341 346.7 359 320 358.2C293.3 357.3 266.7 337.7 240 321.5C213.3 305.3 186.7 292.7 160 295.3C133.3 298 106.7 316 80 321.3C53.3 326.7 26.7 319.3 13.3 315.7L0 312Z" fill="#1a1a1a"></path><path d="M0 417L13.3 419.7C26.7 422.3 53.3 427.7 80 423.2C106.7 418.7 133.3 404.3 160 402.5C186.7 400.7 213.3 411.3 240 422.2C266.7 433 293.3 444 320 446.7C346.7 449.3 373.3 443.7 400 434.7C426.7 425.7 453.3 413.3 480 409.8C506.7 406.3 533.3 411.7 560 413.3C586.7 415 613.3 413 640 408.5C666.7 404 693.3 397 720 400.7C746.7 404.3 773.3 418.7 800 428.5C826.7 438.3 853.3 443.7 880 448.2C906.7 452.7 933.3 456.3 946.7 458.2L960 460L960 399L946.7 399.8C933.3 400.7 906.7 402.3 880 396C853.3 389.7 826.7 375.3 800 363.7C773.3 352 746.7 343 720 338.5C693.3 334 666.7 334 640 337.5C613.3 341 586.7 348 560 351.5C533.3 355 506.7 355 480 357.8C453.3 360.7 426.7 366.3 400 375.3C373.3 384.3 346.7 396.7 320 395.7C293.3 394.7 266.7 380.3 240 366C213.3 351.7 186.7 337.3 160 340C133.3 342.7 106.7 362.3 80 367.7C53.3 373 26.7 364 13.3 359.5L0 355Z" fill="#151515"></path><path d="M0 541L13.3 541C26.7 541 53.3 541 80 541C106.7 541 133.3 541 160 541C186.7 541 213.3 541 240 541C266.7 541 293.3 541 320 541C346.7 541 373.3 541 400 541C426.7 541 453.3 541 480 541C506.7 541 533.3 541 560 541C586.7 541 613.3 541 640 541C666.7 541 693.3 541 720 541C746.7 541 773.3 541 800 541C826.7 541 853.3 541 880 541C906.7 541 933.3 541 946.7 541L960 541L960 458L946.7 456.2C933.3 454.3 906.7 450.7 880 446.2C853.3 441.7 826.7 436.3 800 426.5C773.3 416.7 746.7 402.3 720 398.7C693.3 395 666.7 402 640 406.5C613.3 411 586.7 413 560 411.3C533.3 409.7 506.7 404.3 480 407.8C453.3 411.3 426.7 423.7 400 432.7C373.3 441.7 346.7 447.3 320 444.7C293.3 442 266.7 431 240 420.2C213.3 409.3 186.7 398.7 160 400.5C133.3 402.3 106.7 416.7 80 421.2C53.3 425.7 26.7 420.3 13.3 417.7L0 415Z" fill="#0e0e0e"></path></svg>