<?xml version="1.0" encoding="UTF-8"?>
<svg version="1.1" xmlns="http://www.w3.org/2000/svg" width="255" height="198">
<path d="M0 0 C1.06669922 -0.02819824 2.13339844 -0.05639648 3.23242188 -0.08544922 C4.20727539 -0.11517822 5.18212891 -0.14490723 6.18652344 -0.17553711 C9.28624094 0.18955466 10.62170816 0.97679638 12.84179688 3.13720703 C14.40707776 13.23238934 8.83248635 24.68553006 3.21679688 32.69970703 C-3.53904834 41.44782418 -11.26424415 49.41866936 -19.15820312 57.13720703 C-17.05276299 56.85487982 -14.94886723 56.56101723 -12.84570312 56.26220703 C-11.67394531 56.09978516 -10.5021875 55.93736328 -9.29492188 55.77001953 C-6.01289417 55.31420082 -6.01289417 55.31420082 -3.15820312 53.13720703 C-0.47070313 53.51220703 -0.47070313 53.51220703 1.84179688 54.13720703 C2.83179688 57.10720703 2.83179688 57.10720703 3.84179688 60.13720703 C4.76992187 60.13720703 5.69804687 60.13720703 6.65429688 60.13720703 C8.71679688 60.13720703 10.77929688 60.13720703 12.84179688 60.13720703 C13.83179688 59.14720703 13.83179688 59.14720703 14.84179688 58.13720703 C17.27929688 57.82470703 17.27929688 57.82470703 19.84179688 58.13720703 C20.83179688 59.12720703 21.82179687 60.11720703 22.84179688 61.13720703 C24.82179687 58.82720703 26.80179688 56.51720703 28.84179688 54.13720703 C27.52179688 53.47720703 26.20179688 52.81720703 24.84179688 52.13720703 C23.90429688 50.19970703 23.90429688 50.19970703 23.84179688 48.13720703 C25.27929688 46.38720703 25.27929688 46.38720703 26.84179688 45.13720703 C31.51871995 46.61413011 31.51871995 46.61413011 33.15429688 49.26220703 C33.38117188 49.88095703 33.60804688 50.49970703 33.84179688 51.13720703 C34.81117188 50.97220703 35.78054687 50.80720703 36.77929688 50.63720703 C48.18709755 49.03407415 48.18709755 49.03407415 52.84179688 52.13720703 C53.09179688 54.69970703 53.09179688 54.69970703 52.84179688 57.13720703 C50.47190948 59.50709443 44.56377233 58.6006664 41.35742188 58.75830078 C36.05280076 59.33002106 33.82974268 59.91259896 30.41210938 64.14892578 C29.58684008 65.36736268 28.77211712 66.59299392 27.96679688 67.82470703 C24.71954809 72.59653426 21.50684856 76.89669119 17.21679688 80.80517578 C15.58717468 82.28984823 15.58717468 82.28984823 13.84179688 85.13720703 C11.21679688 85.32470703 11.21679688 85.32470703 8.84179688 85.13720703 C8.18179688 83.48720703 7.52179688 81.83720703 6.84179688 80.13720703 C6.25398438 81.12720703 6.25398438 81.12720703 5.65429688 82.13720703 C3.84179688 84.13720703 3.84179688 84.13720703 1.27929688 84.51220703 C-1.15820312 84.13720703 -1.15820312 84.13720703 -3.15820312 82.13720703 C-2.78320313 79.63720703 -2.78320313 79.63720703 -2.15820312 77.13720703 C-2.15820312 76.47720703 -2.15820312 75.81720703 -2.15820312 75.13720703 C-2.88007813 75.65283203 -3.60195312 76.16845703 -4.34570312 76.69970703 C-7.57773972 78.35163685 -8.7742862 78.20072378 -12.15820312 77.13720703 C-12.48820313 75.81720703 -12.81820312 74.49720703 -13.15820312 73.13720703 C-14.48851562 74.40564453 -14.48851562 74.40564453 -15.84570312 75.69970703 C-18.75903792 78.16323954 -18.75903792 78.16323954 -22.03320312 77.94970703 C-22.73445313 77.68158203 -23.43570313 77.41345703 -24.15820312 77.13720703 C-24.51101651 72.94019783 -23.80005744 71.0719863 -21.15820312 67.82470703 C-20.60132813 67.12732422 -20.04445312 66.42994141 -19.47070312 65.71142578 C-19.03757813 65.19193359 -18.60445312 64.67244141 -18.15820312 64.13720703 C-23.34754181 63.52807473 -26.95256343 64.21922322 -31.15429688 67.41845703 C-33.97896155 70.02101745 -36.6900409 72.74393843 -39.41748047 75.44775391 C-64.7192466 100.00430673 -107.51401653 130.0472138 -143.90820312 131.57470703 C-147.15820313 131.13720703 -147.15820313 131.13720703 -148.86132812 129.85595703 C-150.15820312 128.13720703 -150.15820312 128.13720703 -150.15820312 124.19970703 C-148.58901397 113.85655699 -144.14695725 104.71684254 -135.83398438 98.35986328 C-110.94809823 81.75795561 -78.65331591 71.54734617 -50.15820312 63.13720703 C-50.75544189 63.1675 -51.35268066 63.19779297 -51.96801758 63.22900391 C-107.87600328 66.00863414 -107.87600328 66.00863414 -122.40820312 54.07470703 C-126.38171516 50.37770227 -127.50481676 46.76347404 -127.72070312 41.38720703 C-127.60309098 35.70031385 -126.39821361 32.79328853 -122.31445312 28.87158203 C-92.80910661 5.13902071 -36.54754523 1.58779533 0 0 Z M-53.17993164 10.74798584 C-56.12283219 11.32699598 -59.07065656 11.8798592 -62.01757812 12.43798828 C-83.30911181 16.57142386 -103.71460743 21.11466282 -120.15820312 36.13720703 C-121.59124377 39.00328832 -121.46464468 40.95021486 -121.15820312 44.13720703 C-118.00806701 50.69999061 -113.47714958 52.40768229 -107.09936523 54.96166992 C-99.93674023 57.44922704 -92.94636415 57.53044127 -85.44604492 57.41845703 C-83.35967769 57.38741495 -81.27407528 57.37747701 -79.1875 57.37158203 C-71.76409362 57.32816645 -64.39748566 57.02239789 -57.00048828 56.35327148 C-52.71822192 56.02774273 -48.44956189 56.05002367 -44.15820312 56.13720703 C-43.53320312 58.01220703 -43.53320312 58.01220703 -43.15820312 60.13720703 C-44.14820313 61.12720703 -44.14820313 61.12720703 -45.15820312 62.13720703 C-42.92735246 61.88061392 -40.6985319 61.6063339 -38.47070312 61.32470703 C-37.22933594 61.17388672 -35.98796875 61.02306641 -34.70898438 60.86767578 C-21.51241942 58.15287089 -9.29146592 41.71394233 -2.12304688 31.13330078 C2.77333625 23.15978517 7.00210648 14.64725066 6.84179688 5.13720703 C-13.87422627 4.11153114 -32.93736357 6.73873531 -53.17993164 10.74798584 Z M-105.15820312 88.13720703 C-105.86009766 88.46962402 -106.56199219 88.80204102 -107.28515625 89.14453125 C-130.19383102 100.0247062 -130.19383102 100.0247062 -143.75976562 120.65673828 C-144.23428157 123.61083265 -143.57434138 124.58795577 -142.15820312 127.13720703 C-129.08089168 124.41912523 -117.12363453 121.08669345 -105.15820312 115.13720703 C-104.45614746 114.80156738 -103.7540918 114.46592773 -103.03076172 114.12011719 C-83.92556853 104.95893374 -66.33681176 92.76370156 -50.15820312 79.13720703 C-49.09037598 78.24497437 -49.09037598 78.24497437 -48.00097656 77.3347168 C-46.17028104 75.79894623 -44.3499478 74.25193696 -42.53320312 72.69970703 C-41.92347656 72.18472656 -41.31375 71.66974609 -40.68554688 71.13916016 C-37.47621094 68.50991519 -37.47621094 68.50991519 -35.15820312 65.13720703 C-58.70604249 65.13720703 -84.28168288 78.19339081 -105.15820312 88.13720703 Z " fill="#000000" transform="translate(179.158203125,43.86279296875)"/>
</svg>
